<?xml version="1.0" encoding="UTF-8" ?>
<svg xmlns="http://www.w3.org/2000/svg" xmlns:xlink="http://www.w3.org/1999/xlink" height="10" width="10">
  <g id="qrcode:https://black-jl.github.io/vita/">
    <rect x="0" y="0" width="10px" height="10px" style="fill:white;"/>
    <rect x="0.97" y="0.97" width="0.32" height="0.32" stroke="black" stroke-width="0.2" stroke-linecap="butt" fill="black"/>
    <rect x="0.97" y="1.29" width="0.32" height="0.32" stroke="black" stroke-width="0.2" stroke-linecap="butt" fill="black"/>
    <rect x="0.97" y="1.61" width="0.32" height="0.32" stroke="black" stroke-width="0.2" stroke-linecap="butt" fill="black"/>
    <rect x="0.97" y="1.94" width="0.32" height="0.32" stroke="black" stroke-width="0.2" stroke-linecap="butt" fill="black"/>
    <rect x="0.97" y="2.26" width="0.32" height="0.32" stroke="black" stroke-width="0.2" stroke-linecap="butt" fill="black"/>
    <rect x="0.97" y="2.58" width="0.32" height="0.32" stroke="black" stroke-width="0.2" stroke-linecap="butt" fill="black"/>
    <rect x="0.97" y="2.90" width="0.32" height="0.32" stroke="black" stroke-width="0.2" stroke-linecap="butt" fill="black"/>
    <rect x="0.97" y="3.55" width="0.32" height="0.32" stroke="black" stroke-width="0.2" stroke-linecap="butt" fill="black"/>
    <rect x="0.97" y="3.87" width="0.32" height="0.32" stroke="black" stroke-width="0.2" stroke-linecap="butt" fill="black"/>
    <rect x="0.97" y="4.19" width="0.32" height="0.32" stroke="black" stroke-width="0.2" stroke-linecap="butt" fill="black"/>
    <rect x="0.97" y="5.16" width="0.32" height="0.32" stroke="black" stroke-width="0.2" stroke-linecap="butt" fill="black"/>
    <rect x="0.97" y="6.13" width="0.32" height="0.32" stroke="black" stroke-width="0.2" stroke-linecap="butt" fill="black"/>
    <rect x="0.97" y="6.77" width="0.32" height="0.32" stroke="black" stroke-width="0.2" stroke-linecap="butt" fill="black"/>
    <rect x="0.97" y="7.10" width="0.32" height="0.32" stroke="black" stroke-width="0.2" stroke-linecap="butt" fill="black"/>
    <rect x="0.97" y="7.42" width="0.32" height="0.32" stroke="black" stroke-width="0.2" stroke-linecap="butt" fill="black"/>
    <rect x="0.97" y="7.74" width="0.32" height="0.32" stroke="black" stroke-width="0.2" stroke-linecap="butt" fill="black"/>
    <rect x="0.97" y="8.06" width="0.32" height="0.32" stroke="black" stroke-width="0.2" stroke-linecap="butt" fill="black"/>
    <rect x="0.97" y="8.39" width="0.32" height="0.32" stroke="black" stroke-width="0.2" stroke-linecap="butt" fill="black"/>
    <rect x="0.97" y="8.71" width="0.32" height="0.32" stroke="black" stroke-width="0.2" stroke-linecap="butt" fill="black"/>
    <rect x="1.29" y="0.97" width="0.32" height="0.32" stroke="black" stroke-width="0.2" stroke-linecap="butt" fill="black"/>
    <rect x="1.29" y="2.90" width="0.32" height="0.32" stroke="black" stroke-width="0.2" stroke-linecap="butt" fill="black"/>
    <rect x="1.29" y="3.55" width="0.32" height="0.32" stroke="black" stroke-width="0.2" stroke-linecap="butt" fill="black"/>
    <rect x="1.29" y="4.19" width="0.32" height="0.32" stroke="black" stroke-width="0.2" stroke-linecap="butt" fill="black"/>
    <rect x="1.29" y="5.16" width="0.32" height="0.32" stroke="black" stroke-width="0.2" stroke-linecap="butt" fill="black"/>
    <rect x="1.29" y="6.13" width="0.32" height="0.32" stroke="black" stroke-width="0.2" stroke-linecap="butt" fill="black"/>
    <rect x="1.29" y="6.77" width="0.32" height="0.32" stroke="black" stroke-width="0.2" stroke-linecap="butt" fill="black"/>
    <rect x="1.29" y="8.71" width="0.32" height="0.32" stroke="black" stroke-width="0.2" stroke-linecap="butt" fill="black"/>
    <rect x="1.61" y="0.97" width="0.32" height="0.32" stroke="black" stroke-width="0.2" stroke-linecap="butt" fill="black"/>
    <rect x="1.61" y="1.61" width="0.32" height="0.32" stroke="black" stroke-width="0.2" stroke-linecap="butt" fill="black"/>
    <rect x="1.61" y="1.94" width="0.32" height="0.32" stroke="black" stroke-width="0.2" stroke-linecap="butt" fill="black"/>
    <rect x="1.61" y="2.26" width="0.32" height="0.32" stroke="black" stroke-width="0.2" stroke-linecap="butt" fill="black"/>
    <rect x="1.61" y="2.90" width="0.32" height="0.32" stroke="black" stroke-width="0.2" stroke-linecap="butt" fill="black"/>
    <rect x="1.61" y="4.84" width="0.32" height="0.32" stroke="black" stroke-width="0.2" stroke-linecap="butt" fill="black"/>
    <rect x="1.61" y="5.48" width="0.32" height="0.32" stroke="black" stroke-width="0.2" stroke-linecap="butt" fill="black"/>
    <rect x="1.61" y="5.81" width="0.32" height="0.32" stroke="black" stroke-width="0.2" stroke-linecap="butt" fill="black"/>
    <rect x="1.61" y="6.77" width="0.32" height="0.32" stroke="black" stroke-width="0.2" stroke-linecap="butt" fill="black"/>
    <rect x="1.61" y="7.42" width="0.32" height="0.32" stroke="black" stroke-width="0.2" stroke-linecap="butt" fill="black"/>
    <rect x="1.61" y="7.74" width="0.32" height="0.32" stroke="black" stroke-width="0.2" stroke-linecap="butt" fill="black"/>
    <rect x="1.61" y="8.06" width="0.32" height="0.32" stroke="black" stroke-width="0.2" stroke-linecap="butt" fill="black"/>
    <rect x="1.61" y="8.71" width="0.32" height="0.32" stroke="black" stroke-width="0.2" stroke-linecap="butt" fill="black"/>
    <rect x="1.94" y="0.97" width="0.32" height="0.32" stroke="black" stroke-width="0.2" stroke-linecap="butt" fill="black"/>
    <rect x="1.94" y="1.61" width="0.32" height="0.32" stroke="black" stroke-width="0.2" stroke-linecap="butt" fill="black"/>
    <rect x="1.94" y="1.94" width="0.32" height="0.32" stroke="black" stroke-width="0.2" stroke-linecap="butt" fill="black"/>
    <rect x="1.94" y="2.26" width="0.32" height="0.32" stroke="black" stroke-width="0.2" stroke-linecap="butt" fill="black"/>
    <rect x="1.94" y="2.90" width="0.32" height="0.32" stroke="black" stroke-width="0.2" stroke-linecap="butt" fill="black"/>
    <rect x="1.94" y="4.19" width="0.32" height="0.32" stroke="black" stroke-width="0.2" stroke-linecap="butt" fill="black"/>
    <rect x="1.94" y="4.52" width="0.32" height="0.32" stroke="black" stroke-width="0.2" stroke-linecap="butt" fill="black"/>
    <rect x="1.94" y="4.84" width="0.32" height="0.32" stroke="black" stroke-width="0.2" stroke-linecap="butt" fill="black"/>
    <rect x="1.94" y="5.81" width="0.32" height="0.32" stroke="black" stroke-width="0.2" stroke-linecap="butt" fill="black"/>
    <rect x="1.94" y="6.13" width="0.32" height="0.32" stroke="black" stroke-width="0.2" stroke-linecap="butt" fill="black"/>
    <rect x="1.94" y="6.77" width="0.32" height="0.32" stroke="black" stroke-width="0.2" stroke-linecap="butt" fill="black"/>
    <rect x="1.94" y="7.42" width="0.32" height="0.32" stroke="black" stroke-width="0.2" stroke-linecap="butt" fill="black"/>
    <rect x="1.94" y="7.74" width="0.32" height="0.32" stroke="black" stroke-width="0.2" stroke-linecap="butt" fill="black"/>
    <rect x="1.94" y="8.06" width="0.32" height="0.32" stroke="black" stroke-width="0.2" stroke-linecap="butt" fill="black"/>
    <rect x="1.94" y="8.71" width="0.32" height="0.32" stroke="black" stroke-width="0.2" stroke-linecap="butt" fill="black"/>
    <rect x="2.26" y="0.97" width="0.32" height="0.32" stroke="black" stroke-width="0.2" stroke-linecap="butt" fill="black"/>
    <rect x="2.26" y="1.61" width="0.32" height="0.32" stroke="black" stroke-width="0.2" stroke-linecap="butt" fill="black"/>
    <rect x="2.26" y="1.94" width="0.32" height="0.32" stroke="black" stroke-width="0.2" stroke-linecap="butt" fill="black"/>
    <rect x="2.26" y="2.26" width="0.32" height="0.32" stroke="black" stroke-width="0.2" stroke-linecap="butt" fill="black"/>
    <rect x="2.26" y="2.90" width="0.32" height="0.32" stroke="black" stroke-width="0.2" stroke-linecap="butt" fill="black"/>
    <rect x="2.26" y="3.55" width="0.32" height="0.32" stroke="black" stroke-width="0.2" stroke-linecap="butt" fill="black"/>
    <rect x="2.26" y="3.87" width="0.32" height="0.32" stroke="black" stroke-width="0.2" stroke-linecap="butt" fill="black"/>
    <rect x="2.26" y="5.16" width="0.32" height="0.32" stroke="black" stroke-width="0.2" stroke-linecap="butt" fill="black"/>
    <rect x="2.26" y="5.48" width="0.32" height="0.32" stroke="black" stroke-width="0.2" stroke-linecap="butt" fill="black"/>
    <rect x="2.26" y="5.81" width="0.32" height="0.32" stroke="black" stroke-width="0.2" stroke-linecap="butt" fill="black"/>
    <rect x="2.26" y="6.77" width="0.32" height="0.32" stroke="black" stroke-width="0.2" stroke-linecap="butt" fill="black"/>
    <rect x="2.26" y="7.42" width="0.32" height="0.32" stroke="black" stroke-width="0.2" stroke-linecap="butt" fill="black"/>
    <rect x="2.26" y="7.74" width="0.32" height="0.32" stroke="black" stroke-width="0.2" stroke-linecap="butt" fill="black"/>
    <rect x="2.26" y="8.06" width="0.32" height="0.32" stroke="black" stroke-width="0.2" stroke-linecap="butt" fill="black"/>
    <rect x="2.26" y="8.71" width="0.32" height="0.32" stroke="black" stroke-width="0.2" stroke-linecap="butt" fill="black"/>
    <rect x="2.58" y="0.97" width="0.32" height="0.32" stroke="black" stroke-width="0.2" stroke-linecap="butt" fill="black"/>
    <rect x="2.58" y="2.90" width="0.32" height="0.32" stroke="black" stroke-width="0.2" stroke-linecap="butt" fill="black"/>
    <rect x="2.58" y="3.55" width="0.32" height="0.32" stroke="black" stroke-width="0.2" stroke-linecap="butt" fill="black"/>
    <rect x="2.58" y="4.52" width="0.32" height="0.32" stroke="black" stroke-width="0.2" stroke-linecap="butt" fill="black"/>
    <rect x="2.58" y="5.48" width="0.32" height="0.32" stroke="black" stroke-width="0.2" stroke-linecap="butt" fill="black"/>
    <rect x="2.58" y="6.13" width="0.32" height="0.32" stroke="black" stroke-width="0.2" stroke-linecap="butt" fill="black"/>
    <rect x="2.58" y="6.77" width="0.32" height="0.32" stroke="black" stroke-width="0.2" stroke-linecap="butt" fill="black"/>
    <rect x="2.58" y="8.71" width="0.32" height="0.32" stroke="black" stroke-width="0.2" stroke-linecap="butt" fill="black"/>
    <rect x="2.90" y="0.97" width="0.32" height="0.32" stroke="black" stroke-width="0.2" stroke-linecap="butt" fill="black"/>
    <rect x="2.90" y="1.29" width="0.32" height="0.32" stroke="black" stroke-width="0.2" stroke-linecap="butt" fill="black"/>
    <rect x="2.90" y="1.61" width="0.32" height="0.32" stroke="black" stroke-width="0.2" stroke-linecap="butt" fill="black"/>
    <rect x="2.90" y="1.94" width="0.32" height="0.32" stroke="black" stroke-width="0.2" stroke-linecap="butt" fill="black"/>
    <rect x="2.90" y="2.26" width="0.32" height="0.32" stroke="black" stroke-width="0.2" stroke-linecap="butt" fill="black"/>
    <rect x="2.90" y="2.58" width="0.32" height="0.32" stroke="black" stroke-width="0.2" stroke-linecap="butt" fill="black"/>
    <rect x="2.90" y="2.90" width="0.32" height="0.32" stroke="black" stroke-width="0.2" stroke-linecap="butt" fill="black"/>
    <rect x="2.90" y="3.55" width="0.32" height="0.32" stroke="black" stroke-width="0.2" stroke-linecap="butt" fill="black"/>
    <rect x="2.90" y="4.19" width="0.32" height="0.32" stroke="black" stroke-width="0.2" stroke-linecap="butt" fill="black"/>
    <rect x="2.90" y="4.84" width="0.32" height="0.32" stroke="black" stroke-width="0.2" stroke-linecap="butt" fill="black"/>
    <rect x="2.90" y="5.48" width="0.32" height="0.32" stroke="black" stroke-width="0.2" stroke-linecap="butt" fill="black"/>
    <rect x="2.90" y="6.13" width="0.32" height="0.32" stroke="black" stroke-width="0.2" stroke-linecap="butt" fill="black"/>
    <rect x="2.90" y="6.77" width="0.32" height="0.32" stroke="black" stroke-width="0.2" stroke-linecap="butt" fill="black"/>
    <rect x="2.90" y="7.10" width="0.32" height="0.32" stroke="black" stroke-width="0.2" stroke-linecap="butt" fill="black"/>
    <rect x="2.90" y="7.42" width="0.32" height="0.32" stroke="black" stroke-width="0.2" stroke-linecap="butt" fill="black"/>
    <rect x="2.90" y="7.74" width="0.32" height="0.32" stroke="black" stroke-width="0.2" stroke-linecap="butt" fill="black"/>
    <rect x="2.90" y="8.06" width="0.32" height="0.32" stroke="black" stroke-width="0.2" stroke-linecap="butt" fill="black"/>
    <rect x="2.90" y="8.39" width="0.32" height="0.32" stroke="black" stroke-width="0.2" stroke-linecap="butt" fill="black"/>
    <rect x="2.90" y="8.71" width="0.32" height="0.32" stroke="black" stroke-width="0.2" stroke-linecap="butt" fill="black"/>
    <rect x="3.23" y="3.87" width="0.32" height="0.32" stroke="black" stroke-width="0.2" stroke-linecap="butt" fill="black"/>
    <rect x="3.23" y="4.52" width="0.32" height="0.32" stroke="black" stroke-width="0.2" stroke-linecap="butt" fill="black"/>
    <rect x="3.23" y="5.16" width="0.32" height="0.32" stroke="black" stroke-width="0.2" stroke-linecap="butt" fill="black"/>
    <rect x="3.23" y="5.48" width="0.32" height="0.32" stroke="black" stroke-width="0.2" stroke-linecap="butt" fill="black"/>
    <rect x="3.23" y="5.81" width="0.32" height="0.32" stroke="black" stroke-width="0.2" stroke-linecap="butt" fill="black"/>
    <rect x="3.55" y="0.97" width="0.32" height="0.32" stroke="black" stroke-width="0.2" stroke-linecap="butt" fill="black"/>
    <rect x="3.55" y="1.29" width="0.32" height="0.32" stroke="black" stroke-width="0.2" stroke-linecap="butt" fill="black"/>
    <rect x="3.55" y="1.61" width="0.32" height="0.32" stroke="black" stroke-width="0.2" stroke-linecap="butt" fill="black"/>
    <rect x="3.55" y="1.94" width="0.32" height="0.32" stroke="black" stroke-width="0.2" stroke-linecap="butt" fill="black"/>
    <rect x="3.55" y="2.58" width="0.32" height="0.32" stroke="black" stroke-width="0.2" stroke-linecap="butt" fill="black"/>
    <rect x="3.55" y="2.90" width="0.32" height="0.32" stroke="black" stroke-width="0.2" stroke-linecap="butt" fill="black"/>
    <rect x="3.55" y="6.13" width="0.32" height="0.32" stroke="black" stroke-width="0.2" stroke-linecap="butt" fill="black"/>
    <rect x="3.55" y="6.45" width="0.32" height="0.32" stroke="black" stroke-width="0.2" stroke-linecap="butt" fill="black"/>
    <rect x="3.55" y="7.10" width="0.32" height="0.32" stroke="black" stroke-width="0.2" stroke-linecap="butt" fill="black"/>
    <rect x="3.55" y="7.42" width="0.32" height="0.32" stroke="black" stroke-width="0.2" stroke-linecap="butt" fill="black"/>
    <rect x="3.55" y="8.39" width="0.32" height="0.32" stroke="black" stroke-width="0.2" stroke-linecap="butt" fill="black"/>
    <rect x="3.55" y="8.71" width="0.32" height="0.32" stroke="black" stroke-width="0.2" stroke-linecap="butt" fill="black"/>
    <rect x="3.87" y="1.61" width="0.32" height="0.32" stroke="black" stroke-width="0.2" stroke-linecap="butt" fill="black"/>
    <rect x="3.87" y="3.23" width="0.32" height="0.32" stroke="black" stroke-width="0.2" stroke-linecap="butt" fill="black"/>
    <rect x="3.87" y="3.55" width="0.32" height="0.32" stroke="black" stroke-width="0.2" stroke-linecap="butt" fill="black"/>
    <rect x="3.87" y="3.87" width="0.32" height="0.32" stroke="black" stroke-width="0.2" stroke-linecap="butt" fill="black"/>
    <rect x="3.87" y="4.52" width="0.32" height="0.32" stroke="black" stroke-width="0.2" stroke-linecap="butt" fill="black"/>
    <rect x="3.87" y="5.48" width="0.32" height="0.32" stroke="black" stroke-width="0.2" stroke-linecap="butt" fill="black"/>
    <rect x="3.87" y="7.10" width="0.32" height="0.32" stroke="black" stroke-width="0.2" stroke-linecap="butt" fill="black"/>
    <rect x="3.87" y="7.74" width="0.32" height="0.32" stroke="black" stroke-width="0.2" stroke-linecap="butt" fill="black"/>
    <rect x="3.87" y="8.06" width="0.32" height="0.32" stroke="black" stroke-width="0.2" stroke-linecap="butt" fill="black"/>
    <rect x="3.87" y="8.39" width="0.32" height="0.32" stroke="black" stroke-width="0.2" stroke-linecap="butt" fill="black"/>
    <rect x="4.19" y="0.97" width="0.32" height="0.32" stroke="black" stroke-width="0.2" stroke-linecap="butt" fill="black"/>
    <rect x="4.19" y="1.29" width="0.32" height="0.32" stroke="black" stroke-width="0.2" stroke-linecap="butt" fill="black"/>
    <rect x="4.19" y="1.61" width="0.32" height="0.32" stroke="black" stroke-width="0.2" stroke-linecap="butt" fill="black"/>
    <rect x="4.19" y="2.90" width="0.32" height="0.32" stroke="black" stroke-width="0.2" stroke-linecap="butt" fill="black"/>
    <rect x="4.19" y="5.48" width="0.32" height="0.32" stroke="black" stroke-width="0.2" stroke-linecap="butt" fill="black"/>
    <rect x="4.19" y="5.81" width="0.32" height="0.32" stroke="black" stroke-width="0.2" stroke-linecap="butt" fill="black"/>
    <rect x="4.19" y="6.13" width="0.32" height="0.32" stroke="black" stroke-width="0.2" stroke-linecap="butt" fill="black"/>
    <rect x="4.19" y="7.42" width="0.32" height="0.32" stroke="black" stroke-width="0.2" stroke-linecap="butt" fill="black"/>
    <rect x="4.19" y="7.74" width="0.32" height="0.32" stroke="black" stroke-width="0.2" stroke-linecap="butt" fill="black"/>
    <rect x="4.52" y="0.97" width="0.32" height="0.32" stroke="black" stroke-width="0.2" stroke-linecap="butt" fill="black"/>
    <rect x="4.52" y="1.61" width="0.32" height="0.32" stroke="black" stroke-width="0.2" stroke-linecap="butt" fill="black"/>
    <rect x="4.52" y="2.26" width="0.32" height="0.32" stroke="black" stroke-width="0.2" stroke-linecap="butt" fill="black"/>
    <rect x="4.52" y="3.87" width="0.32" height="0.32" stroke="black" stroke-width="0.2" stroke-linecap="butt" fill="black"/>
    <rect x="4.52" y="4.19" width="0.32" height="0.32" stroke="black" stroke-width="0.2" stroke-linecap="butt" fill="black"/>
    <rect x="4.52" y="4.84" width="0.32" height="0.32" stroke="black" stroke-width="0.2" stroke-linecap="butt" fill="black"/>
    <rect x="4.52" y="5.16" width="0.32" height="0.32" stroke="black" stroke-width="0.2" stroke-linecap="butt" fill="black"/>
    <rect x="4.52" y="5.48" width="0.32" height="0.32" stroke="black" stroke-width="0.2" stroke-linecap="butt" fill="black"/>
    <rect x="4.52" y="6.13" width="0.32" height="0.32" stroke="black" stroke-width="0.2" stroke-linecap="butt" fill="black"/>
    <rect x="4.52" y="6.45" width="0.32" height="0.32" stroke="black" stroke-width="0.2" stroke-linecap="butt" fill="black"/>
    <rect x="4.52" y="6.77" width="0.32" height="0.32" stroke="black" stroke-width="0.2" stroke-linecap="butt" fill="black"/>
    <rect x="4.52" y="7.10" width="0.32" height="0.32" stroke="black" stroke-width="0.2" stroke-linecap="butt" fill="black"/>
    <rect x="4.52" y="7.42" width="0.32" height="0.32" stroke="black" stroke-width="0.2" stroke-linecap="butt" fill="black"/>
    <rect x="4.52" y="7.74" width="0.32" height="0.32" stroke="black" stroke-width="0.2" stroke-linecap="butt" fill="black"/>
    <rect x="4.52" y="8.06" width="0.32" height="0.32" stroke="black" stroke-width="0.2" stroke-linecap="butt" fill="black"/>
    <rect x="4.52" y="8.71" width="0.32" height="0.32" stroke="black" stroke-width="0.2" stroke-linecap="butt" fill="black"/>
    <rect x="4.84" y="2.58" width="0.32" height="0.32" stroke="black" stroke-width="0.2" stroke-linecap="butt" fill="black"/>
    <rect x="4.84" y="2.90" width="0.32" height="0.32" stroke="black" stroke-width="0.2" stroke-linecap="butt" fill="black"/>
    <rect x="4.84" y="3.23" width="0.32" height="0.32" stroke="black" stroke-width="0.2" stroke-linecap="butt" fill="black"/>
    <rect x="4.84" y="4.19" width="0.32" height="0.32" stroke="black" stroke-width="0.2" stroke-linecap="butt" fill="black"/>
    <rect x="4.84" y="4.52" width="0.32" height="0.32" stroke="black" stroke-width="0.2" stroke-linecap="butt" fill="black"/>
    <rect x="4.84" y="4.84" width="0.32" height="0.32" stroke="black" stroke-width="0.2" stroke-linecap="butt" fill="black"/>
    <rect x="4.84" y="5.16" width="0.32" height="0.32" stroke="black" stroke-width="0.2" stroke-linecap="butt" fill="black"/>
    <rect x="4.84" y="5.48" width="0.32" height="0.32" stroke="black" stroke-width="0.2" stroke-linecap="butt" fill="black"/>
    <rect x="4.84" y="5.81" width="0.32" height="0.32" stroke="black" stroke-width="0.2" stroke-linecap="butt" fill="black"/>
    <rect x="4.84" y="6.13" width="0.32" height="0.32" stroke="black" stroke-width="0.2" stroke-linecap="butt" fill="black"/>
    <rect x="4.84" y="6.77" width="0.32" height="0.32" stroke="black" stroke-width="0.2" stroke-linecap="butt" fill="black"/>
    <rect x="4.84" y="7.42" width="0.32" height="0.32" stroke="black" stroke-width="0.2" stroke-linecap="butt" fill="black"/>
    <rect x="4.84" y="8.39" width="0.32" height="0.32" stroke="black" stroke-width="0.2" stroke-linecap="butt" fill="black"/>
    <rect x="4.84" y="8.71" width="0.32" height="0.32" stroke="black" stroke-width="0.2" stroke-linecap="butt" fill="black"/>
    <rect x="5.16" y="0.97" width="0.32" height="0.32" stroke="black" stroke-width="0.2" stroke-linecap="butt" fill="black"/>
    <rect x="5.16" y="1.94" width="0.32" height="0.32" stroke="black" stroke-width="0.2" stroke-linecap="butt" fill="black"/>
    <rect x="5.16" y="2.58" width="0.32" height="0.32" stroke="black" stroke-width="0.2" stroke-linecap="butt" fill="black"/>
    <rect x="5.16" y="3.87" width="0.32" height="0.32" stroke="black" stroke-width="0.2" stroke-linecap="butt" fill="black"/>
    <rect x="5.16" y="6.45" width="0.32" height="0.32" stroke="black" stroke-width="0.2" stroke-linecap="butt" fill="black"/>
    <rect x="5.16" y="7.74" width="0.32" height="0.32" stroke="black" stroke-width="0.2" stroke-linecap="butt" fill="black"/>
    <rect x="5.16" y="8.06" width="0.32" height="0.32" stroke="black" stroke-width="0.2" stroke-linecap="butt" fill="black"/>
    <rect x="5.48" y="0.97" width="0.32" height="0.32" stroke="black" stroke-width="0.2" stroke-linecap="butt" fill="black"/>
    <rect x="5.48" y="1.61" width="0.32" height="0.32" stroke="black" stroke-width="0.2" stroke-linecap="butt" fill="black"/>
    <rect x="5.48" y="1.94" width="0.32" height="0.32" stroke="black" stroke-width="0.2" stroke-linecap="butt" fill="black"/>
    <rect x="5.48" y="2.26" width="0.32" height="0.32" stroke="black" stroke-width="0.2" stroke-linecap="butt" fill="black"/>
    <rect x="5.48" y="2.58" width="0.32" height="0.32" stroke="black" stroke-width="0.2" stroke-linecap="butt" fill="black"/>
    <rect x="5.48" y="2.90" width="0.32" height="0.32" stroke="black" stroke-width="0.2" stroke-linecap="butt" fill="black"/>
    <rect x="5.48" y="3.23" width="0.32" height="0.32" stroke="black" stroke-width="0.2" stroke-linecap="butt" fill="black"/>
    <rect x="5.48" y="4.19" width="0.32" height="0.32" stroke="black" stroke-width="0.2" stroke-linecap="butt" fill="black"/>
    <rect x="5.48" y="5.16" width="0.32" height="0.32" stroke="black" stroke-width="0.2" stroke-linecap="butt" fill="black"/>
    <rect x="5.48" y="6.77" width="0.32" height="0.32" stroke="black" stroke-width="0.2" stroke-linecap="butt" fill="black"/>
    <rect x="5.48" y="7.10" width="0.32" height="0.32" stroke="black" stroke-width="0.2" stroke-linecap="butt" fill="black"/>
    <rect x="5.48" y="7.74" width="0.32" height="0.32" stroke="black" stroke-width="0.2" stroke-linecap="butt" fill="black"/>
    <rect x="5.48" y="8.71" width="0.32" height="0.32" stroke="black" stroke-width="0.2" stroke-linecap="butt" fill="black"/>
    <rect x="5.81" y="0.97" width="0.32" height="0.32" stroke="black" stroke-width="0.2" stroke-linecap="butt" fill="black"/>
    <rect x="5.81" y="2.26" width="0.32" height="0.32" stroke="black" stroke-width="0.2" stroke-linecap="butt" fill="black"/>
    <rect x="5.81" y="3.23" width="0.32" height="0.32" stroke="black" stroke-width="0.2" stroke-linecap="butt" fill="black"/>
    <rect x="5.81" y="3.55" width="0.32" height="0.32" stroke="black" stroke-width="0.2" stroke-linecap="butt" fill="black"/>
    <rect x="5.81" y="3.87" width="0.32" height="0.32" stroke="black" stroke-width="0.2" stroke-linecap="butt" fill="black"/>
    <rect x="5.81" y="4.19" width="0.32" height="0.32" stroke="black" stroke-width="0.2" stroke-linecap="butt" fill="black"/>
    <rect x="5.81" y="4.84" width="0.32" height="0.32" stroke="black" stroke-width="0.2" stroke-linecap="butt" fill="black"/>
    <rect x="5.81" y="5.16" width="0.32" height="0.32" stroke="black" stroke-width="0.2" stroke-linecap="butt" fill="black"/>
    <rect x="5.81" y="5.48" width="0.32" height="0.32" stroke="black" stroke-width="0.2" stroke-linecap="butt" fill="black"/>
    <rect x="5.81" y="5.81" width="0.32" height="0.32" stroke="black" stroke-width="0.2" stroke-linecap="butt" fill="black"/>
    <rect x="5.81" y="6.13" width="0.32" height="0.32" stroke="black" stroke-width="0.2" stroke-linecap="butt" fill="black"/>
    <rect x="5.81" y="7.10" width="0.32" height="0.32" stroke="black" stroke-width="0.2" stroke-linecap="butt" fill="black"/>
    <rect x="5.81" y="7.74" width="0.32" height="0.32" stroke="black" stroke-width="0.2" stroke-linecap="butt" fill="black"/>
    <rect x="5.81" y="8.06" width="0.32" height="0.32" stroke="black" stroke-width="0.2" stroke-linecap="butt" fill="black"/>
    <rect x="5.81" y="8.39" width="0.32" height="0.32" stroke="black" stroke-width="0.2" stroke-linecap="butt" fill="black"/>
    <rect x="5.81" y="8.71" width="0.32" height="0.32" stroke="black" stroke-width="0.2" stroke-linecap="butt" fill="black"/>
    <rect x="6.13" y="0.97" width="0.32" height="0.32" stroke="black" stroke-width="0.2" stroke-linecap="butt" fill="black"/>
    <rect x="6.13" y="1.94" width="0.32" height="0.32" stroke="black" stroke-width="0.2" stroke-linecap="butt" fill="black"/>
    <rect x="6.13" y="2.90" width="0.32" height="0.32" stroke="black" stroke-width="0.2" stroke-linecap="butt" fill="black"/>
    <rect x="6.13" y="3.87" width="0.32" height="0.32" stroke="black" stroke-width="0.2" stroke-linecap="butt" fill="black"/>
    <rect x="6.13" y="4.19" width="0.32" height="0.32" stroke="black" stroke-width="0.2" stroke-linecap="butt" fill="black"/>
    <rect x="6.13" y="4.52" width="0.32" height="0.32" stroke="black" stroke-width="0.2" stroke-linecap="butt" fill="black"/>
    <rect x="6.13" y="5.16" width="0.32" height="0.32" stroke="black" stroke-width="0.2" stroke-linecap="butt" fill="black"/>
    <rect x="6.13" y="6.13" width="0.32" height="0.32" stroke="black" stroke-width="0.2" stroke-linecap="butt" fill="black"/>
    <rect x="6.13" y="6.45" width="0.32" height="0.32" stroke="black" stroke-width="0.2" stroke-linecap="butt" fill="black"/>
    <rect x="6.13" y="6.77" width="0.32" height="0.32" stroke="black" stroke-width="0.2" stroke-linecap="butt" fill="black"/>
    <rect x="6.13" y="7.10" width="0.32" height="0.32" stroke="black" stroke-width="0.2" stroke-linecap="butt" fill="black"/>
    <rect x="6.13" y="7.42" width="0.32" height="0.32" stroke="black" stroke-width="0.2" stroke-linecap="butt" fill="black"/>
    <rect x="6.13" y="7.74" width="0.32" height="0.32" stroke="black" stroke-width="0.2" stroke-linecap="butt" fill="black"/>
    <rect x="6.45" y="4.52" width="0.32" height="0.32" stroke="black" stroke-width="0.2" stroke-linecap="butt" fill="black"/>
    <rect x="6.45" y="4.84" width="0.32" height="0.32" stroke="black" stroke-width="0.2" stroke-linecap="butt" fill="black"/>
    <rect x="6.45" y="5.48" width="0.32" height="0.32" stroke="black" stroke-width="0.2" stroke-linecap="butt" fill="black"/>
    <rect x="6.45" y="6.13" width="0.32" height="0.32" stroke="black" stroke-width="0.2" stroke-linecap="butt" fill="black"/>
    <rect x="6.45" y="7.42" width="0.32" height="0.32" stroke="black" stroke-width="0.2" stroke-linecap="butt" fill="black"/>
    <rect x="6.45" y="7.74" width="0.32" height="0.32" stroke="black" stroke-width="0.2" stroke-linecap="butt" fill="black"/>
    <rect x="6.45" y="8.06" width="0.32" height="0.32" stroke="black" stroke-width="0.2" stroke-linecap="butt" fill="black"/>
    <rect x="6.45" y="8.39" width="0.32" height="0.32" stroke="black" stroke-width="0.2" stroke-linecap="butt" fill="black"/>
    <rect x="6.45" y="8.71" width="0.32" height="0.32" stroke="black" stroke-width="0.2" stroke-linecap="butt" fill="black"/>
    <rect x="6.77" y="0.97" width="0.32" height="0.32" stroke="black" stroke-width="0.2" stroke-linecap="butt" fill="black"/>
    <rect x="6.77" y="1.29" width="0.32" height="0.32" stroke="black" stroke-width="0.2" stroke-linecap="butt" fill="black"/>
    <rect x="6.77" y="1.61" width="0.32" height="0.32" stroke="black" stroke-width="0.2" stroke-linecap="butt" fill="black"/>
    <rect x="6.77" y="1.94" width="0.32" height="0.32" stroke="black" stroke-width="0.2" stroke-linecap="butt" fill="black"/>
    <rect x="6.77" y="2.26" width="0.32" height="0.32" stroke="black" stroke-width="0.2" stroke-linecap="butt" fill="black"/>
    <rect x="6.77" y="2.58" width="0.32" height="0.32" stroke="black" stroke-width="0.2" stroke-linecap="butt" fill="black"/>
    <rect x="6.77" y="2.90" width="0.32" height="0.32" stroke="black" stroke-width="0.2" stroke-linecap="butt" fill="black"/>
    <rect x="6.77" y="4.19" width="0.32" height="0.32" stroke="black" stroke-width="0.2" stroke-linecap="butt" fill="black"/>
    <rect x="6.77" y="4.84" width="0.32" height="0.32" stroke="black" stroke-width="0.2" stroke-linecap="butt" fill="black"/>
    <rect x="6.77" y="6.13" width="0.32" height="0.32" stroke="black" stroke-width="0.2" stroke-linecap="butt" fill="black"/>
    <rect x="6.77" y="6.77" width="0.32" height="0.32" stroke="black" stroke-width="0.2" stroke-linecap="butt" fill="black"/>
    <rect x="6.77" y="7.42" width="0.32" height="0.32" stroke="black" stroke-width="0.2" stroke-linecap="butt" fill="black"/>
    <rect x="6.77" y="7.74" width="0.32" height="0.32" stroke="black" stroke-width="0.2" stroke-linecap="butt" fill="black"/>
    <rect x="6.77" y="8.06" width="0.32" height="0.32" stroke="black" stroke-width="0.2" stroke-linecap="butt" fill="black"/>
    <rect x="7.10" y="0.97" width="0.32" height="0.32" stroke="black" stroke-width="0.2" stroke-linecap="butt" fill="black"/>
    <rect x="7.10" y="2.90" width="0.32" height="0.32" stroke="black" stroke-width="0.2" stroke-linecap="butt" fill="black"/>
    <rect x="7.10" y="3.55" width="0.32" height="0.32" stroke="black" stroke-width="0.2" stroke-linecap="butt" fill="black"/>
    <rect x="7.10" y="4.84" width="0.32" height="0.32" stroke="black" stroke-width="0.2" stroke-linecap="butt" fill="black"/>
    <rect x="7.10" y="5.48" width="0.32" height="0.32" stroke="black" stroke-width="0.2" stroke-linecap="butt" fill="black"/>
    <rect x="7.10" y="5.81" width="0.32" height="0.32" stroke="black" stroke-width="0.2" stroke-linecap="butt" fill="black"/>
    <rect x="7.10" y="6.13" width="0.32" height="0.32" stroke="black" stroke-width="0.2" stroke-linecap="butt" fill="black"/>
    <rect x="7.10" y="7.42" width="0.32" height="0.32" stroke="black" stroke-width="0.2" stroke-linecap="butt" fill="black"/>
    <rect x="7.10" y="7.74" width="0.32" height="0.32" stroke="black" stroke-width="0.2" stroke-linecap="butt" fill="black"/>
    <rect x="7.10" y="8.39" width="0.32" height="0.32" stroke="black" stroke-width="0.2" stroke-linecap="butt" fill="black"/>
    <rect x="7.42" y="0.97" width="0.32" height="0.32" stroke="black" stroke-width="0.2" stroke-linecap="butt" fill="black"/>
    <rect x="7.42" y="1.61" width="0.32" height="0.32" stroke="black" stroke-width="0.2" stroke-linecap="butt" fill="black"/>
    <rect x="7.42" y="1.94" width="0.32" height="0.32" stroke="black" stroke-width="0.2" stroke-linecap="butt" fill="black"/>
    <rect x="7.42" y="2.26" width="0.32" height="0.32" stroke="black" stroke-width="0.2" stroke-linecap="butt" fill="black"/>
    <rect x="7.42" y="2.90" width="0.32" height="0.32" stroke="black" stroke-width="0.2" stroke-linecap="butt" fill="black"/>
    <rect x="7.42" y="3.87" width="0.32" height="0.32" stroke="black" stroke-width="0.2" stroke-linecap="butt" fill="black"/>
    <rect x="7.42" y="4.19" width="0.32" height="0.32" stroke="black" stroke-width="0.2" stroke-linecap="butt" fill="black"/>
    <rect x="7.42" y="5.16" width="0.32" height="0.32" stroke="black" stroke-width="0.2" stroke-linecap="butt" fill="black"/>
    <rect x="7.42" y="5.48" width="0.32" height="0.32" stroke="black" stroke-width="0.2" stroke-linecap="butt" fill="black"/>
    <rect x="7.42" y="5.81" width="0.32" height="0.32" stroke="black" stroke-width="0.2" stroke-linecap="butt" fill="black"/>
    <rect x="7.42" y="6.13" width="0.32" height="0.32" stroke="black" stroke-width="0.2" stroke-linecap="butt" fill="black"/>
    <rect x="7.42" y="6.45" width="0.32" height="0.32" stroke="black" stroke-width="0.2" stroke-linecap="butt" fill="black"/>
    <rect x="7.42" y="6.77" width="0.32" height="0.32" stroke="black" stroke-width="0.2" stroke-linecap="butt" fill="black"/>
    <rect x="7.42" y="7.10" width="0.32" height="0.32" stroke="black" stroke-width="0.2" stroke-linecap="butt" fill="black"/>
    <rect x="7.42" y="7.42" width="0.32" height="0.32" stroke="black" stroke-width="0.2" stroke-linecap="butt" fill="black"/>
    <rect x="7.42" y="8.39" width="0.32" height="0.32" stroke="black" stroke-width="0.2" stroke-linecap="butt" fill="black"/>
    <rect x="7.74" y="0.97" width="0.32" height="0.32" stroke="black" stroke-width="0.2" stroke-linecap="butt" fill="black"/>
    <rect x="7.74" y="1.61" width="0.32" height="0.32" stroke="black" stroke-width="0.2" stroke-linecap="butt" fill="black"/>
    <rect x="7.74" y="1.94" width="0.32" height="0.32" stroke="black" stroke-width="0.2" stroke-linecap="butt" fill="black"/>
    <rect x="7.74" y="2.26" width="0.32" height="0.32" stroke="black" stroke-width="0.2" stroke-linecap="butt" fill="black"/>
    <rect x="7.74" y="2.90" width="0.32" height="0.32" stroke="black" stroke-width="0.2" stroke-linecap="butt" fill="black"/>
    <rect x="7.74" y="3.55" width="0.32" height="0.32" stroke="black" stroke-width="0.2" stroke-linecap="butt" fill="black"/>
    <rect x="7.74" y="3.87" width="0.32" height="0.32" stroke="black" stroke-width="0.2" stroke-linecap="butt" fill="black"/>
    <rect x="7.74" y="4.19" width="0.32" height="0.32" stroke="black" stroke-width="0.2" stroke-linecap="butt" fill="black"/>
    <rect x="7.74" y="4.84" width="0.32" height="0.32" stroke="black" stroke-width="0.2" stroke-linecap="butt" fill="black"/>
    <rect x="7.74" y="5.48" width="0.32" height="0.32" stroke="black" stroke-width="0.2" stroke-linecap="butt" fill="black"/>
    <rect x="7.74" y="6.13" width="0.32" height="0.32" stroke="black" stroke-width="0.2" stroke-linecap="butt" fill="black"/>
    <rect x="7.74" y="7.10" width="0.32" height="0.32" stroke="black" stroke-width="0.2" stroke-linecap="butt" fill="black"/>
    <rect x="7.74" y="7.42" width="0.32" height="0.32" stroke="black" stroke-width="0.2" stroke-linecap="butt" fill="black"/>
    <rect x="7.74" y="8.06" width="0.32" height="0.32" stroke="black" stroke-width="0.2" stroke-linecap="butt" fill="black"/>
    <rect x="7.74" y="8.39" width="0.32" height="0.32" stroke="black" stroke-width="0.2" stroke-linecap="butt" fill="black"/>
    <rect x="8.06" y="0.97" width="0.32" height="0.32" stroke="black" stroke-width="0.2" stroke-linecap="butt" fill="black"/>
    <rect x="8.06" y="1.61" width="0.32" height="0.32" stroke="black" stroke-width="0.2" stroke-linecap="butt" fill="black"/>
    <rect x="8.06" y="1.94" width="0.32" height="0.32" stroke="black" stroke-width="0.2" stroke-linecap="butt" fill="black"/>
    <rect x="8.06" y="2.26" width="0.32" height="0.32" stroke="black" stroke-width="0.2" stroke-linecap="butt" fill="black"/>
    <rect x="8.06" y="2.90" width="0.32" height="0.32" stroke="black" stroke-width="0.2" stroke-linecap="butt" fill="black"/>
    <rect x="8.06" y="3.55" width="0.32" height="0.32" stroke="black" stroke-width="0.2" stroke-linecap="butt" fill="black"/>
    <rect x="8.06" y="4.19" width="0.32" height="0.32" stroke="black" stroke-width="0.2" stroke-linecap="butt" fill="black"/>
    <rect x="8.06" y="4.52" width="0.32" height="0.32" stroke="black" stroke-width="0.2" stroke-linecap="butt" fill="black"/>
    <rect x="8.06" y="4.84" width="0.32" height="0.32" stroke="black" stroke-width="0.2" stroke-linecap="butt" fill="black"/>
    <rect x="8.06" y="5.48" width="0.32" height="0.32" stroke="black" stroke-width="0.2" stroke-linecap="butt" fill="black"/>
    <rect x="8.06" y="5.81" width="0.32" height="0.32" stroke="black" stroke-width="0.2" stroke-linecap="butt" fill="black"/>
    <rect x="8.06" y="6.13" width="0.32" height="0.32" stroke="black" stroke-width="0.2" stroke-linecap="butt" fill="black"/>
    <rect x="8.06" y="7.10" width="0.32" height="0.32" stroke="black" stroke-width="0.2" stroke-linecap="butt" fill="black"/>
    <rect x="8.06" y="7.42" width="0.32" height="0.32" stroke="black" stroke-width="0.2" stroke-linecap="butt" fill="black"/>
    <rect x="8.06" y="7.74" width="0.32" height="0.32" stroke="black" stroke-width="0.2" stroke-linecap="butt" fill="black"/>
    <rect x="8.06" y="8.39" width="0.32" height="0.32" stroke="black" stroke-width="0.2" stroke-linecap="butt" fill="black"/>
    <rect x="8.06" y="8.71" width="0.32" height="0.32" stroke="black" stroke-width="0.2" stroke-linecap="butt" fill="black"/>
    <rect x="8.39" y="0.97" width="0.32" height="0.32" stroke="black" stroke-width="0.2" stroke-linecap="butt" fill="black"/>
    <rect x="8.39" y="2.90" width="0.32" height="0.32" stroke="black" stroke-width="0.2" stroke-linecap="butt" fill="black"/>
    <rect x="8.39" y="3.55" width="0.32" height="0.32" stroke="black" stroke-width="0.2" stroke-linecap="butt" fill="black"/>
    <rect x="8.39" y="3.87" width="0.32" height="0.32" stroke="black" stroke-width="0.2" stroke-linecap="butt" fill="black"/>
    <rect x="8.39" y="4.52" width="0.32" height="0.32" stroke="black" stroke-width="0.2" stroke-linecap="butt" fill="black"/>
    <rect x="8.39" y="4.84" width="0.32" height="0.32" stroke="black" stroke-width="0.2" stroke-linecap="butt" fill="black"/>
    <rect x="8.39" y="5.16" width="0.32" height="0.32" stroke="black" stroke-width="0.2" stroke-linecap="butt" fill="black"/>
    <rect x="8.39" y="5.81" width="0.32" height="0.32" stroke="black" stroke-width="0.2" stroke-linecap="butt" fill="black"/>
    <rect x="8.39" y="7.10" width="0.32" height="0.32" stroke="black" stroke-width="0.2" stroke-linecap="butt" fill="black"/>
    <rect x="8.39" y="8.06" width="0.32" height="0.32" stroke="black" stroke-width="0.2" stroke-linecap="butt" fill="black"/>
    <rect x="8.39" y="8.39" width="0.32" height="0.32" stroke="black" stroke-width="0.2" stroke-linecap="butt" fill="black"/>
    <rect x="8.39" y="8.71" width="0.32" height="0.32" stroke="black" stroke-width="0.2" stroke-linecap="butt" fill="black"/>
    <rect x="8.71" y="0.97" width="0.32" height="0.32" stroke="black" stroke-width="0.2" stroke-linecap="butt" fill="black"/>
    <rect x="8.71" y="1.29" width="0.32" height="0.32" stroke="black" stroke-width="0.2" stroke-linecap="butt" fill="black"/>
    <rect x="8.71" y="1.61" width="0.32" height="0.32" stroke="black" stroke-width="0.2" stroke-linecap="butt" fill="black"/>
    <rect x="8.71" y="1.94" width="0.32" height="0.32" stroke="black" stroke-width="0.2" stroke-linecap="butt" fill="black"/>
    <rect x="8.71" y="2.26" width="0.32" height="0.32" stroke="black" stroke-width="0.2" stroke-linecap="butt" fill="black"/>
    <rect x="8.71" y="2.58" width="0.32" height="0.32" stroke="black" stroke-width="0.2" stroke-linecap="butt" fill="black"/>
    <rect x="8.71" y="2.90" width="0.32" height="0.32" stroke="black" stroke-width="0.2" stroke-linecap="butt" fill="black"/>
    <rect x="8.71" y="3.55" width="0.32" height="0.32" stroke="black" stroke-width="0.2" stroke-linecap="butt" fill="black"/>
    <rect x="8.71" y="4.84" width="0.32" height="0.32" stroke="black" stroke-width="0.2" stroke-linecap="butt" fill="black"/>
    <rect x="8.71" y="7.42" width="0.32" height="0.32" stroke="black" stroke-width="0.2" stroke-linecap="butt" fill="black"/>
    <rect x="8.71" y="8.71" width="0.32" height="0.32" stroke="black" stroke-width="0.2" stroke-linecap="butt" fill="black"/>
  </g>
</svg>
